<?xml version="1.0" encoding="utf-8"?>
<!-- Svg Vector Icons : http://www.onlinewebfonts.com/icon -->
<!DOCTYPE svg PUBLIC "-//W3C//DTD SVG 1.1//EN" "http://www.w3.org/Graphics/SVG/1.1/DTD/svg11.dtd">
<svg version="1.1" xmlns="http://www.w3.org/2000/svg" xmlns:xlink="http://www.w3.org/1999/xlink" x="0px" y="0px" viewBox="0 0 1000 1000" enable-background="new 0 0 1000 1000" xml:space="preserve">
<metadata> Svg Vector Icons : http://www.onlinewebfonts.com/icon </metadata>
<g><g><path d="M634.6,386.8l-27.4,27.4l-18.1-18.1l27.4-27.4l-28.2-28.2l-27.4,27.4l-43-43.1l-23.1,23l6.6,6.6c4.3,4.3,7,7.8,7.7,10.1c0.8,2.4,0.8,4.5,0.1,6.5c-0.8,1.9-3.6,5.4-8.5,10.4l-92.8,92.8c-4.8,4.9-8.3,7.6-10.3,8.4c-2,0.7-4.2,0.7-6.5,0c-2.3-0.8-5.7-3.4-10-7.8l-6.5-6.5l-23.1,23l43.1,43.1l-27.5,27.4l28.2,28.2l27.4-27.4l16,16c0.7,0.7,1.4,1.4,2.1,2l-27.4,27.5l28.2,28.2l29.8-29.8c5.5,3.9,10.9,6.9,15.9,9c13.6,5.8,26.8,7.7,39.6,5.6c12.8-2.2,23.6-7.6,32.5-16.4c7.3-7.4,12.3-15.8,14.7-25.4c2.6-9.5,2.4-18.9-0.2-28.2c-1.7-6.5-5.5-14.7-11.3-24.5c9.8,4.8,18.7,7.5,27,8.2c8.2,0.6,15.9-0.3,23.2-2.9c7.3-2.5,13.7-6.6,19.2-12c7.6-7.6,12.3-16.7,14.1-27.5c1.9-10.8,0.4-22-4.4-33.6c-2-4.5-4.7-9.3-8.1-14.3l29.4-29.4L634.6,386.8z M529.4,541c-1.1,5.8-4.1,11.1-9,16c-5.8,5.8-12.3,9.2-19.8,10c-7.4,0.9-14.1-0.4-20-3.7c-6-3.3-12.5-8.5-19.5-15.6l-12.1-12.2c-4.1-4.1-6.3-6.8-6.8-8.1c-0.5-1.3-0.4-2.8,0.4-4.3c0.5-1.3,3.3-4.4,8.3-9.5l36-36l21.5,21.5c9.5,9.4,15.6,17.4,18.5,23.7C529.7,529.2,530.6,535.2,529.4,541z M585.3,485.6c-4.2,4.2-9.1,6.8-14.6,7.7c-5.6,0.9-11.4-0.2-17.6-3.1c-6.2-3-14-9.3-23.6-18.8l-18.2-18.2l40.6-40.6l18.2,18.2c10.7,10.7,17.4,18.8,20.2,24.2c2.8,5.5,3.8,10.8,2.9,16.1C592.4,476.4,589.7,481.2,585.3,485.6z M881.5,260.5l-16,14.6c-15.9,14.5-37,22.5-59.5,22.5c-26.6,0-53-11.3-72.6-30.8c-37.8-37.8-41.4-95.8-8.4-132.2l14.6-16.1L631,10L10,631l108.5,108.5l16-14.6c15.9-14.5,37-22.4,59.5-22.4c27,0,52.7,10.9,72.6,30.8c37.7,37.8,41.4,95.8,8.4,132.2l-14.6,16L369,990l621-621L881.5,260.5z M322.1,878.8c34.7-53.9,26.2-128.2-23.2-177.6c-28.5-28.5-65.7-44.2-104.8-44.2c-26.3,0-51.4,7.4-72.8,21l-47-47L631,74.3l47,47c-34.7,54-26.2,128.2,23.2,177.6c28.5,28.5,65.8,44.2,104.8,44.2c26.2,0,51.4-7.4,72.7-21l47,47L369.1,925.8L322.1,878.8z"/></g><g></g><g></g><g></g><g></g><g></g><g></g><g></g><g></g><g></g><g></g><g></g><g></g><g></g><g></g><g></g></g>
</svg>